<svg width="461" height="461" viewBox="0 0 461 461" fill="none" xmlns="http://www.w3.org/2000/svg">
<path d="M146.461 393.753H83.8561C79.666 393.753 75.6479 392.087 72.6865 389.123C69.7289 386.162 68.0676 382.149 68.0676 377.964V314.447C68.0676 303.991 63.9734 293.951 56.6618 286.476L9.3895 238.151C7.21669 235.93 6 232.946 6 229.839C6 226.732 7.21645 223.748 9.38888 221.527L56.2237 173.642C63.534 166.168 67.6274 156.128 67.6274 145.673V83.8538C67.6274 79.4387 69.4333 75.2157 72.6255 72.1656C75.6333 69.2917 79.6333 67.6879 83.7934 67.6879H146.653C157.219 67.6879 167.356 63.5073 174.851 56.0588L221.325 9.86909C223.818 7.39094 227.191 6 230.706 6C234.238 6 237.625 7.40391 240.121 9.90253L286.132 55.9583C293.634 63.4683 303.815 67.6879 314.43 67.6879H379.079C383.133 67.6879 386.997 69.4098 389.708 72.4248C392.067 75.0488 393.373 78.4527 393.373 81.9814V146.472C393.373 156.976 397.504 167.058 404.875 174.541L451.444 221.823C453.723 224.136 455 227.253 455 230.5C455 233.747 453.723 236.864 451.444 239.177L404.875 286.459C397.504 293.942 393.373 304.024 393.373 314.528V377.205C393.373 381.331 391.831 385.308 389.05 388.357C385.915 391.794 381.469 393.753 376.816 393.753H314.187C303.72 393.753 293.662 397.856 286.186 405.182L238.809 451.603C236.587 453.78 233.599 455 230.488 455C227.391 455 224.416 453.792 222.196 451.632L174.356 405.084C166.888 397.818 156.88 393.753 146.461 393.753Z" fill="#419F48" stroke="#419F48" stroke-width="11"/>
<path d="M147.669 390.844H86.4689C82.3535 390.844 78.4069 389.208 75.4983 386.297C72.5935 383.389 70.9618 379.447 70.9618 375.337V313.242C70.9618 302.786 66.8676 292.746 59.5559 285.271L13.3291 238.015C11.195 235.833 10 232.902 10 229.851C10 226.799 11.1948 223.869 13.3285 221.687L59.1256 174.863C66.436 167.388 70.5294 157.349 70.5294 146.894V86.4667C70.5294 82.1302 72.303 77.9825 75.4384 74.9867C78.3926 72.164 82.3213 70.5888 86.4073 70.5888H147.853C158.419 70.5888 168.556 66.4082 176.051 58.9597L221.488 13.8002C223.937 11.3662 227.25 10 230.703 10C234.171 10 237.498 11.3789 239.95 13.833L284.932 58.8592C292.434 66.3691 302.615 70.5888 313.23 70.5888H376.432C380.414 70.5888 384.209 72.28 386.871 75.2412C389.189 77.8185 390.471 81.1618 390.471 84.6276V147.678C390.471 158.181 394.602 168.263 401.973 175.747L447.508 221.977C449.746 224.249 451 227.311 451 230.5C451 233.689 449.746 236.751 447.508 239.023L401.973 285.253C394.602 292.737 390.471 302.819 390.471 313.322V374.591C390.471 378.643 388.957 382.55 386.226 385.544C383.146 388.92 378.779 390.844 374.209 390.844H312.987C302.519 390.844 292.462 394.947 284.986 402.273L238.661 447.663C236.479 449.802 233.544 451 230.488 451C227.446 451 224.524 449.813 222.344 447.692L175.563 402.175C168.096 394.909 158.088 390.844 147.669 390.844Z" stroke="white" stroke-width="3"/>
<path d="M169.027 149.012L163.168 161.414V236.805C163.168 243.706 158.285 250.607 148.52 257.508C139.665 263.693 130.29 266.785 120.395 266.785C110.824 266.785 103.077 263.758 97.1523 257.703C91.293 251.648 88.3633 243.803 88.3633 234.168C88.3633 227.267 89.6979 220.398 92.3672 213.562C94.776 207.508 96.599 204.578 97.8359 204.773C97.8359 207.052 97.4128 210.47 96.5664 215.027C95.7852 219.52 95.3945 222.905 95.3945 225.184C95.3945 235.079 98.3893 242.273 104.379 246.766C110.954 251.714 117.432 254.188 123.812 254.188C129.021 254.188 134.327 252.299 139.73 248.523C145.134 244.747 148.943 240.451 151.156 235.633V154.773C151.156 154.773 150.18 149.5 148.227 138.953L160.824 126.16L161.996 141.59L169.027 149.012ZM278.695 237H260.336C254.542 237 250.277 234.201 247.543 228.602C247.283 228.016 245.688 222.807 242.758 212.977C241.065 207.443 240.316 204.253 240.512 203.406C240.251 206.987 237.777 213.107 233.09 221.766C228.207 230.88 224.659 236.577 222.445 238.855C218.669 242.762 212.745 245.529 204.672 247.156C196.924 248.784 189.21 249.598 181.527 249.598C174.236 249.598 169.092 248.947 166.098 247.645C184.913 244.715 201.449 238.237 215.707 228.211C216.488 224.435 216.879 221.017 216.879 217.957C216.879 211.382 215.089 205.652 211.508 200.77C204.021 190.678 198.747 184.624 195.688 182.605L190.902 188.367C182.113 179.578 177.719 171.993 177.719 165.613C177.719 163.66 178.305 161.642 179.477 159.559C180.844 157.215 182.374 156.043 184.066 156.043C188.754 156.043 195.46 160.958 204.184 170.789C211.475 178.992 216.781 186.251 220.102 192.566C222.38 196.928 223.52 206.531 223.52 221.375C224.887 219.747 226.84 217.241 229.379 213.855C231.918 210.405 233.708 205.197 234.75 198.23C236.573 185.6 237.484 170.529 237.484 153.016C237.484 148.133 237.289 144.78 236.898 142.957L248.52 133.387L248.422 140.418C248.227 174.272 249.333 199.142 251.742 215.027C252.523 220.301 258.122 222.938 268.539 222.938C270.036 222.938 271.957 222.905 274.301 222.84C276.645 222.71 278.109 222.645 278.695 222.645V237ZM368.344 237H265.414V222.645C316.716 222.645 340.382 222.579 336.41 222.449C336.41 221.863 335.076 220.138 332.406 217.273C328.695 213.302 324.203 209.949 318.93 207.215C313.07 204.155 307.699 202.625 302.816 202.625C298.975 202.625 292.497 204.48 283.383 208.191C287.159 201.16 289.926 196.701 291.684 194.812C295.329 190.906 300.082 188.953 305.941 188.953C314.665 188.953 324.952 194.161 336.801 204.578C344.939 211.74 355.453 217.762 368.344 222.645V237Z" fill="white"/>
<path d="M146.624 294.672L157.12 277.2H162.624L149.504 299.28L163.584 322H157.696L146.624 304.144L135.488 322H129.6L143.744 299.28L130.624 277.2H136.32L146.624 294.672ZM198.725 322H193.413L189.125 307.6H176.005L171.781 322H166.533L179.781 277.2H185.349L198.725 322ZM177.221 302.8H187.909L182.469 283.92L177.221 302.8ZM225.727 277.2H233.087V322H228.287V281.488H226.367C225.343 281.488 224.447 281.637 223.679 281.936C222.953 282.192 222.356 282.619 221.887 283.216C221.417 283.813 221.012 284.603 220.671 285.584L212.095 314.192C211.583 315.984 211.007 317.477 210.367 318.672C209.769 319.824 209.023 320.741 208.127 321.424C207.231 322.064 206.036 322.576 204.543 322.96L201.791 320.528C202.9 320.101 203.796 319.547 204.479 318.864C205.204 318.139 205.801 317.349 206.271 316.496C206.74 315.6 207.081 314.768 207.295 314L215.615 286.352C215.871 285.584 216.169 284.688 216.51 283.664C216.895 282.597 217.428 281.573 218.111 280.592C218.836 279.611 219.796 278.8 220.991 278.16C222.228 277.52 223.807 277.2 225.727 277.2ZM251.124 277.2H265.844V322H261.044V307.344H251.124C250.74 307.344 250.356 307.344 249.972 307.344C249.63 307.344 249.289 307.323 248.948 307.28C248.606 307.237 248.286 307.195 247.988 307.152L242.612 322H237.684L243.635 305.744C242.441 305.019 241.396 304.08 240.5 302.928C239.646 301.733 239.006 300.261 238.58 298.512C238.153 296.72 237.94 294.587 237.94 292.112C237.94 289.253 238.26 286.864 238.9 284.944C239.54 282.981 240.436 281.445 241.588 280.336C242.782 279.227 244.19 278.437 245.812 277.968C247.433 277.456 249.204 277.2 251.124 277.2ZM251.764 302.8H261.044V281.808H251.764C250.398 281.808 249.161 281.957 248.052 282.256C246.942 282.512 245.982 283.003 245.172 283.728C244.404 284.411 243.806 285.435 243.38 286.8C242.953 288.165 242.74 289.936 242.74 292.112C242.74 294.459 242.953 296.357 243.38 297.808C243.806 299.216 244.404 300.283 245.172 301.008C245.982 301.691 246.942 302.16 248.052 302.416C249.161 302.672 250.398 302.8 251.764 302.8ZM293.539 277.2H300.899V322H296.099V281.488H294.179C293.155 281.488 292.259 281.637 291.491 281.936C290.766 282.192 290.168 282.619 289.699 283.216C289.23 283.813 288.824 284.603 288.483 285.584L279.907 314.192C279.395 315.984 278.819 317.477 278.179 318.672C277.582 319.824 276.835 320.741 275.939 321.424C275.043 322.064 273.848 322.576 272.355 322.96L269.603 320.528C270.712 320.101 271.608 319.547 272.291 318.864C273.016 318.139 273.614 317.349 274.083 316.496C274.552 315.6 274.894 314.768 275.107 314L283.427 286.352C283.683 285.584 283.982 284.688 284.323 283.664C284.707 282.597 285.24 281.573 285.923 280.592C286.648 279.611 287.608 278.8 288.803 278.16C290.04 277.52 291.619 277.2 293.539 277.2ZM320.728 295.632C321.965 295.632 323.16 295.845 324.312 296.272C325.464 296.656 326.488 297.253 327.384 298.064C328.323 298.875 329.048 299.92 329.56 301.2C330.115 302.437 330.392 303.931 330.392 305.68V311.504C330.392 313.808 330.029 315.685 329.304 317.136C328.621 318.587 327.619 319.717 326.296 320.528C325.016 321.339 323.523 321.893 321.816 322.192C320.109 322.533 318.275 322.704 316.312 322.704C315.587 322.704 314.755 322.683 313.816 322.64C312.92 322.597 311.981 322.533 311 322.448C310.061 322.405 309.187 322.341 308.376 322.256C307.565 322.213 306.904 322.171 306.392 322.128C305.923 322.085 305.709 322.064 305.752 322.064V277.2H310.552V295.632H320.728ZM325.656 310.8V306.064C325.656 304.869 325.485 303.909 325.144 303.184C324.845 302.416 324.44 301.84 323.928 301.456C323.416 301.029 322.861 300.752 322.264 300.624C321.667 300.496 321.112 300.432 320.6 300.432H310.552V318.032C310.595 318.032 310.723 318.053 310.936 318.096C311.149 318.139 311.427 318.181 311.768 318.224C312.152 318.267 312.579 318.309 313.048 318.352C313.517 318.352 314.029 318.373 314.584 318.416C315.139 318.459 315.693 318.48 316.248 318.48C317.912 318.48 319.32 318.373 320.472 318.16C321.667 317.947 322.648 317.584 323.416 317.072C324.184 316.517 324.739 315.728 325.08 314.704C325.464 313.68 325.656 312.379 325.656 310.8Z" fill="white"/>
</svg>
