<svg  viewBox="0 0 25 24" xmlns="http://www.w3.org/2000/svg">
<path d="M21.7506 12.0004C21.7506 12.1993 21.6716 12.3901 21.5309 12.5307C21.3903 12.6714 21.1995 12.7504 21.0006 12.7504H6.3109L11.7812 18.2198C11.8509 18.2895 11.9062 18.3722 11.9439 18.4632C11.9816 18.5543 12.001 18.6519 12.001 18.7504C12.001 18.849 11.9816 18.9465 11.9439 19.0376C11.9062 19.1286 11.8509 19.2114 11.7812 19.281C11.7115 19.3507 11.6288 19.406 11.5378 19.4437C11.4467 19.4814 11.3491 19.5008 11.2506 19.5008C11.152 19.5008 11.0545 19.4814 10.9634 19.4437C10.8724 19.406 10.7896 19.3507 10.72 19.281L3.96996 12.531C3.90023 12.4614 3.84491 12.3787 3.80717 12.2876C3.76943 12.1966 3.75 12.099 3.75 12.0004C3.75 11.9019 3.76943 11.8043 3.80717 11.7132C3.84491 11.6222 3.90023 11.5394 3.96996 11.4698L10.72 4.71979C10.8607 4.57906 11.0516 4.5 11.2506 4.5C11.4496 4.5 11.6405 4.57906 11.7812 4.71979C11.9219 4.86052 12.001 5.05139 12.001 5.25042C12.001 5.44944 11.9219 5.64031 11.7812 5.78104L6.3109 11.2504H21.0006C21.1995 11.2504 21.3903 11.3294 21.5309 11.4701C21.6716 11.6107 21.7506 11.8015 21.7506 12.0004Z" fill="currentColor"/>
</svg>
