<svg  viewBox="0 0 25 24" xmlns="http://www.w3.org/2000/svg">
<path d="M21.0306 12.531L14.2806 19.281C14.1399 19.4218 13.949 19.5008 13.75 19.5008C13.551 19.5008 13.3601 19.4218 13.2194 19.281C13.0786 19.1403 12.9996 18.9494 12.9996 18.7504C12.9996 18.5514 13.0786 18.3605 13.2194 18.2198L18.6897 12.7504H4C3.80109 12.7504 3.61032 12.6714 3.46967 12.5307C3.32902 12.3901 3.25 12.1993 3.25 12.0004C3.25 11.8015 3.32902 11.6107 3.46967 11.4701C3.61032 11.3294 3.80109 11.2504 4 11.2504H18.6897L13.2194 5.78104C13.0786 5.64031 12.9996 5.44944 12.9996 5.25042C12.9996 5.05139 13.0786 4.86052 13.2194 4.71979C13.3601 4.57906 13.551 4.5 13.75 4.5C13.949 4.5 14.1399 4.57906 14.2806 4.71979L21.0306 11.4698C21.1004 11.5394 21.1557 11.6222 21.1934 11.7132C21.2312 11.8043 21.2506 11.9019 21.2506 12.0004C21.2506 12.099 21.2312 12.1966 21.1934 12.2876C21.1557 12.3787 21.1004 12.4614 21.0306 12.531Z" fill="currentColor"/>
</svg>
