<svg viewBox="0 0 32 32"  xmlns="http://www.w3.org/2000/svg">
<path d="M3 13.0004H6V21.0004H4C3.73478 21.0004 3.48043 21.1057 3.29289 21.2932C3.10536 21.4808 3 21.7351 3 22.0004C3 22.2656 3.10536 22.5199 3.29289 22.7075C3.48043 22.895 3.73478 23.0004 4 23.0004H28C28.2652 23.0004 28.5196 22.895 28.7071 22.7075C28.8946 22.5199 29 22.2656 29 22.0004C29 21.7351 28.8946 21.4808 28.7071 21.2932C28.5196 21.1057 28.2652 21.0004 28 21.0004H26V13.0004H29C29.2176 13.0001 29.4292 12.929 29.6026 12.7976C29.7761 12.6663 29.902 12.4819 29.9612 12.2726C30.0205 12.0632 30.0098 11.8403 29.9308 11.6375C29.8519 11.4348 29.709 11.2633 29.5238 11.1491L16.5238 3.1491C16.3662 3.05225 16.1849 3.00098 16 3.00098C15.8151 3.00098 15.6338 3.05225 15.4762 3.1491L2.47625 11.1491C2.29103 11.2633 2.14811 11.4348 2.06916 11.6375C1.99021 11.8403 1.97955 12.0632 2.03878 12.2726C2.09801 12.4819 2.22391 12.6663 2.39738 12.7976C2.57085 12.929 2.78242 13.0001 3 13.0004ZM8 13.0004H12V21.0004H8V13.0004ZM18 13.0004V21.0004H14V13.0004H18ZM24 21.0004H20V13.0004H24V21.0004ZM16 5.1741L25.4675 11.0004H6.5325L16 5.1741ZM31 26.0004C31 26.2656 30.8946 26.5199 30.7071 26.7075C30.5196 26.895 30.2652 27.0004 30 27.0004H2C1.73478 27.0004 1.48043 26.895 1.29289 26.7075C1.10536 26.5199 1 26.2656 1 26.0004C1 25.7351 1.10536 25.4808 1.29289 25.2932C1.48043 25.1057 1.73478 25.0004 2 25.0004H30C30.2652 25.0004 30.5196 25.1057 30.7071 25.2932C30.8946 25.4808 31 25.7351 31 26.0004Z" fill="currentColor"/>
</svg>
