<svg viewBox="0 0 16 16"  xmlns="http://www.w3.org/2000/svg">
<path d="M13 4.5H1.5V3C1.5 2.86739 1.44732 2.74021 1.35355 2.64645C1.25979 2.55268 1.13261 2.5 1 2.5C0.867392 2.5 0.740215 2.55268 0.646447 2.64645C0.552678 2.74021 0.5 2.86739 0.5 3V13C0.5 13.1326 0.552678 13.2598 0.646447 13.3536C0.740215 13.4473 0.867392 13.5 1 13.5C1.13261 13.5 1.25979 13.4473 1.35355 13.3536C1.44732 13.2598 1.5 13.1326 1.5 13V11H14.5V13C14.5 13.1326 14.5527 13.2598 14.6464 13.3536C14.7402 13.4473 14.8674 13.5 15 13.5C15.1326 13.5 15.2598 13.4473 15.3536 13.3536C15.4473 13.2598 15.5 13.1326 15.5 13V7C15.5 6.33696 15.2366 5.70107 14.7678 5.23223C14.2989 4.76339 13.663 4.5 13 4.5ZM1.5 5.5H6V10H1.5V5.5ZM7 10V5.5H13C13.3978 5.5 13.7794 5.65804 14.0607 5.93934C14.342 6.22064 14.5 6.60218 14.5 7V10H7Z" fill="currentColor"/>
</svg>
