<svg  viewBox="0 0 20 20"  xmlns="http://www.w3.org/2000/svg">
<path d="M2.5 10V4.75C2.5 4.19772 2.94772 3.75 3.5 3.75H16.5C17.0523 3.75 17.5 4.19772 17.5 4.75V10M4.375 10V8.5C4.375 7.94772 4.82272 7.5 5.375 7.5H7.75C8.30228 7.5 8.75 7.94772 8.75 8.5V10M11.25 10V8.5C11.25 7.94772 11.6977 7.5 12.25 7.5H14.625C15.1773 7.5 15.625 7.94772 15.625 8.5V10M1.25 13.125V11C1.25 10.4477 1.69772 10 2.25 10H17.75C18.3023 10 18.75 10.4477 18.75 11V13.125M1.25 15V15C0.904822 15 0.625 14.7202 0.625 14.375V14.0625C0.625 13.5447 1.04473 13.125 1.5625 13.125H18.4375C18.9553 13.125 19.375 13.5447 19.375 14.0625V14.375C19.375 14.7202 19.0952 15 18.75 15V15M1.25 15V15.5625C1.25 16.1148 1.69772 16.5625 2.25 16.5625H2.67017C3.12278 16.5625 3.51896 16.2585 3.6361 15.8213L3.85617 15M1.25 15H3.85617M3.85617 15H16.1438M18.75 15V15.5625C18.75 16.1148 18.3023 16.5625 17.75 16.5625H17.3298C16.8772 16.5625 16.481 16.2585 16.3639 15.8213L16.1438 15M18.75 15H16.1438" fill="#FAFCFE" stroke="currentColor"/>
</svg>
