<svg  viewBox="0 0 24 24"  xmlns="http://www.w3.org/2000/svg">
<path d="M22.2375 14.2372C22.1749 14.0624 22.1013 13.8918 22.0172 13.7263L18.1181 4.85564C18.0812 4.7702 18.0284 4.69257 17.9625 4.62689C17.6839 4.34824 17.3532 4.1272 16.9891 3.9764C16.6251 3.82559 16.235 3.74797 15.8409 3.74797C15.4469 3.74797 15.0568 3.82559 14.6927 3.9764C14.3287 4.1272 13.998 4.34824 13.7194 4.62689C13.5792 4.7672 13.5003 4.95732 13.5 5.15564V7.49939H10.5V5.15564C10.5001 5.05712 10.4807 4.95955 10.4431 4.8685C10.4055 4.77746 10.3503 4.69472 10.2806 4.62502C10.002 4.34637 9.67129 4.12533 9.30727 3.97452C8.94325 3.82371 8.55309 3.74609 8.15906 3.74609C7.76504 3.74609 7.37488 3.82371 7.01085 3.97452C6.64683 4.12533 6.31609 4.34637 6.0375 4.62502C5.97158 4.6907 5.91876 4.76833 5.88188 4.85377L1.98281 13.7244C1.89871 13.8899 1.82512 14.0606 1.7625 14.2353C1.54172 14.8531 1.45867 15.5116 1.51918 16.1649C1.57969 16.8181 1.78229 17.4502 2.11279 18.0169C2.44329 18.5835 2.89369 19.0711 3.43245 19.4454C3.97121 19.8197 4.58529 20.0717 5.23168 20.1837C5.87806 20.2957 6.54112 20.265 7.17441 20.0938C7.80769 19.9226 8.39589 19.615 8.89779 19.1926C9.39968 18.7701 9.80315 18.2431 10.0799 17.6483C10.3567 17.0535 10.5001 16.4054 10.5 15.7494V8.99939H13.5V15.7494C13.4997 16.4055 13.6428 17.0537 13.9194 17.6487C14.196 18.2436 14.5993 18.7709 15.1011 19.1936C15.603 19.6162 16.1911 19.924 16.8245 20.0954C17.4578 20.2668 18.1209 20.2976 18.7674 20.1857C19.4139 20.0739 20.0281 19.822 20.567 19.4477C21.1059 19.0734 21.5564 18.5859 21.887 18.0191C22.2176 17.4524 22.4202 16.8203 22.4808 16.167C22.5413 15.5137 22.4583 14.855 22.2375 14.2372ZM7.19156 5.60095C7.44161 5.39041 7.75359 5.26731 8.08004 5.25039C8.40648 5.23347 8.72952 5.32365 9 5.5072V12.3988C8.41444 11.873 7.70098 11.5103 6.93111 11.3471C6.16123 11.1838 5.36198 11.2258 4.61344 11.4688L7.19156 5.60095ZM6 18.7494C5.40666 18.7494 4.82664 18.5734 4.33329 18.2438C3.83994 17.9142 3.45542 17.4456 3.22836 16.8974C3.0013 16.3493 2.94189 15.7461 3.05764 15.1641C3.1734 14.5822 3.45912 14.0476 3.87868 13.6281C4.29824 13.2085 4.83279 12.9228 5.41473 12.807C5.99667 12.6913 6.59987 12.7507 7.14805 12.9778C7.69623 13.2048 8.16476 13.5893 8.49441 14.0827C8.82405 14.576 9 15.156 9 15.7494C9 16.545 8.68393 17.3081 8.12132 17.8707C7.55871 18.4333 6.79565 18.7494 6 18.7494ZM15 5.50627C15.2705 5.32271 15.5935 5.23253 15.92 5.24945C16.2464 5.26638 16.5584 5.38947 16.8084 5.60002L19.3866 11.4669C18.6379 11.2241 17.8386 11.1822 17.0688 11.3456C16.2989 11.509 15.5855 11.8719 15 12.3978V5.50627ZM18 18.7494C17.4067 18.7494 16.8266 18.5734 16.3333 18.2438C15.8399 17.9142 15.4554 17.4456 15.2284 16.8974C15.0013 16.3493 14.9419 15.7461 15.0576 15.1641C15.1734 14.5822 15.4591 14.0476 15.8787 13.6281C16.2982 13.2085 16.8328 12.9228 17.4147 12.807C17.9967 12.6913 18.5999 12.7507 19.1481 12.9778C19.6962 13.2048 20.1648 13.5893 20.4944 14.0827C20.8241 14.576 21 15.156 21 15.7494C21 16.545 20.6839 17.3081 20.1213 17.8707C19.5587 18.4333 18.7956 18.7494 18 18.7494Z" fill="currentColor"/>
</svg>
