<svg  viewBox="0 0 24 24" xmlns="http://www.w3.org/2000/svg">
<path d="M14.25 9.00087V5.25087C14.25 5.05196 14.329 4.8612 14.4697 4.72054C14.6103 4.57989 14.8011 4.50087 15 4.50087C15.1989 4.50087 15.3897 4.57989 15.5303 4.72054C15.671 4.8612 15.75 5.05196 15.75 5.25087V7.19056L18.9694 3.97025C19.1101 3.82952 19.301 3.75046 19.5 3.75046C19.699 3.75046 19.8899 3.82952 20.0306 3.97025C20.1714 4.11098 20.2504 4.30185 20.2504 4.50087C20.2504 4.6999 20.1714 4.89077 20.0306 5.0315L16.8113 8.25087H18.75C18.9489 8.25087 19.1397 8.32989 19.2803 8.47054C19.421 8.6112 19.5 8.80196 19.5 9.00087C19.5 9.19979 19.421 9.39055 19.2803 9.5312C19.1397 9.67186 18.9489 9.75087 18.75 9.75087H15C14.8011 9.75087 14.6103 9.67186 14.4697 9.5312C14.329 9.39055 14.25 9.19979 14.25 9.00087ZM21.7388 16.4146C21.5716 17.685 20.9477 18.851 19.9837 19.695C19.0196 20.539 17.7813 21.0032 16.5 21.0009C9.05626 21.0009 3.00001 14.9446 3.00001 7.50087C2.99754 6.21963 3.46169 4.98133 4.30573 4.01739C5.14976 3.05344 6.31592 2.42982 7.58626 2.26306C7.90739 2.22377 8.23261 2.28935 8.51342 2.45002C8.79422 2.6107 9.01555 2.85786 9.14439 3.15462L11.1244 7.57494V7.58619C11.2229 7.81349 11.2636 8.06165 11.2428 8.30851C11.222 8.55537 11.1404 8.79324 11.0053 9.00087C10.9884 9.02619 10.9706 9.04962 10.9519 9.07306L9.00001 11.3868C9.7022 12.8137 11.1947 14.2931 12.6403 14.9971L14.9222 13.0556C14.9446 13.0367 14.9681 13.0192 14.9925 13.0031C15.2 12.8647 15.4387 12.7802 15.687 12.7573C15.9353 12.7344 16.1854 12.7737 16.4147 12.8718L16.4269 12.8774L20.8434 14.8565C21.1409 14.9847 21.3889 15.2058 21.5503 15.4866C21.7116 15.7675 21.7778 16.0931 21.7388 16.4146ZM20.25 16.2271C20.25 16.2271 20.2434 16.2271 20.2397 16.2271L15.8334 14.2537L13.5506 16.1952C13.5287 16.2143 13.5055 16.2318 13.4813 16.2477C13.2654 16.3918 13.0159 16.4773 12.7571 16.496C12.4983 16.5148 12.239 16.466 12.0047 16.3546C10.2488 15.5062 8.49845 13.769 7.64907 12.0318C7.5366 11.7992 7.48613 11.5414 7.50255 11.2836C7.51898 11.0257 7.60174 10.7764 7.74282 10.5599C7.75872 10.5345 7.77659 10.5104 7.79626 10.4877L9.75001 8.17119L7.78126 3.76494C7.78089 3.7612 7.78089 3.75743 7.78126 3.75369C6.87212 3.87228 6.0374 4.31821 5.4334 5.00798C4.8294 5.69775 4.49755 6.58404 4.50001 7.50087C4.50348 10.6824 5.76888 13.7326 8.01857 15.9823C10.2682 18.232 13.3185 19.4974 16.5 19.5009C17.4163 19.504 18.3023 19.1733 18.9925 18.5706C19.6827 17.968 20.1297 17.1345 20.25 16.2262V16.2271Z" fill="currentColor"/>
</svg>
