<svg viewBox="0 0 20 20" xmlns="http://www.w3.org/2000/svg">
<path d="M19.3748 10.6248C19.2091 10.6248 19.0501 10.6907 18.9329 10.8079C18.8157 10.9251 18.7498 11.0841 18.7498 11.2498V12.4998H15.2584L13.828 11.067L17.7608 7.1334C17.995 6.89901 18.1266 6.58119 18.1266 6.24981C18.1266 5.91843 17.995 5.60061 17.7608 5.36622L13.3858 0.991217C13.2697 0.875114 13.1319 0.783014 12.9802 0.720178C12.8285 0.657342 12.666 0.625 12.5018 0.625C12.3376 0.625 12.175 0.657342 12.0234 0.720178C11.8717 0.783014 11.7339 0.875114 11.6178 0.991217L0.22796 12.417C0.118955 12.5263 0.0447937 12.6655 0.0148416 12.817C-0.0151104 12.9685 0.000489592 13.1254 0.0596718 13.268C0.118854 13.4106 0.218964 13.5325 0.347362 13.6182C0.47576 13.704 0.626686 13.7498 0.781085 13.7498H3.85687L6.61624 16.5084C6.85064 16.7426 7.16846 16.8742 7.49984 16.8742C7.83121 16.8742 8.14903 16.7426 8.38343 16.5084L12.942 11.9529L14.3748 13.3834C14.4905 13.5 14.6282 13.5924 14.7798 13.6553C14.9315 13.7182 15.0942 13.7503 15.2584 13.7498H18.7498V14.9998C18.7498 15.1656 18.8157 15.3245 18.9329 15.4418C19.0501 15.559 19.2091 15.6248 19.3748 15.6248C19.5406 15.6248 19.6996 15.559 19.8168 15.4418C19.934 15.3245 19.9998 15.1656 19.9998 14.9998V11.2498C19.9998 11.0841 19.934 10.9251 19.8168 10.8079C19.6996 10.6907 19.5406 10.6248 19.3748 10.6248ZM12.4998 1.87481L13.4912 2.86622L3.85687 12.4998H1.91077L12.4998 1.87481ZM7.49984 15.6248L4.99984 13.1248L14.3748 3.74981L16.8748 6.24981L7.49984 15.6248Z" fill="currentColor"/>
</svg>
