<svg  viewBox="0 0 20 20" xmlns="http://www.w3.org/2000/svg">
<path d="M18.8742 13.375L11.043 7.5L12.8758 6.125C12.9535 6.06686 13.0167 5.99141 13.0602 5.90462C13.1038 5.81783 13.1265 5.72209 13.1266 5.625C13.1266 4.7962 12.7973 4.00134 12.2113 3.41529C11.6252 2.82924 10.8304 2.5 10.0016 2.5C9.17276 2.5 8.37791 2.82924 7.79186 3.41529C7.20581 4.00134 6.87657 4.7962 6.87657 5.625C6.87657 5.79076 6.94241 5.94973 7.05962 6.06694C7.17683 6.18415 7.33581 6.25 7.50157 6.25C7.66733 6.25 7.8263 6.18415 7.94351 6.06694C8.06072 5.94973 8.12657 5.79076 8.12657 5.625C8.12783 5.15424 8.30614 4.70117 8.62606 4.35582C8.94598 4.01047 9.38411 3.79809 9.85341 3.7609C10.3227 3.7237 10.7888 3.8644 11.1592 4.15504C11.5295 4.44568 11.7769 4.865 11.8523 5.32969L9.6375 6.99141L9.61563 7.00781L1.12891 13.375C0.919186 13.5323 0.764223 13.7515 0.68594 14.0017C0.607656 14.2519 0.610015 14.5204 0.692682 14.7692C0.775349 15.018 0.93414 15.2344 1.14659 15.388C1.35905 15.5416 1.61441 15.6245 1.87657 15.625H18.1266C18.3889 15.625 18.6446 15.5425 18.8575 15.3891C19.0703 15.2357 19.2295 15.0192 19.3124 14.7703C19.3954 14.5214 19.3979 14.2527 19.3197 14.0023C19.2415 13.7519 19.0864 13.5324 18.8766 13.375H18.8742ZM18.1266 14.375H1.87657L10.0016 8.28125L18.1266 14.375Z" fill="currentColor"/>
</svg>
