<svg viewBox="0 0 20 20"  xmlns="http://www.w3.org/2000/svg">
<path d="M18.4211 6.95349L10.2961 2.57849C10.2051 2.52953 10.1033 2.50391 10 2.50391C9.89665 2.50391 9.79492 2.52953 9.70391 2.57849L1.57891 6.95349C1.48001 7.00669 1.39727 7.08556 1.33939 7.18179C1.28152 7.27802 1.25064 7.38807 1.25 7.50037V12.5004C1.24993 12.6133 1.28048 12.7242 1.3384 12.8212C1.39631 12.9182 1.47943 12.9976 1.57891 13.0512L9.70391 17.4262C9.79492 17.4751 9.89665 17.5007 10 17.5007C10.1033 17.5007 10.2051 17.4751 10.2961 17.4262L18.4211 13.0512C18.5206 12.9976 18.6037 12.9182 18.6616 12.8212C18.7195 12.7242 18.7501 12.6133 18.75 12.5004V7.50037C18.7494 7.38807 18.7185 7.27802 18.6606 7.18179C18.6027 7.08556 18.52 7.00669 18.4211 6.95349ZM17.5 11.4543L14.8008 10.0004L17.5 8.54646V11.4543ZM13.482 9.29021L10.625 7.75193V4.17146L16.807 7.50037L13.482 9.29021ZM10 11.1652L7.83594 10.0004L10 8.83553L12.1641 10.0004L10 11.1652ZM9.375 4.17146V7.75193L6.51797 9.29021L3.19297 7.50037L9.375 4.17146ZM2.5 8.54646L5.19922 10.0004L2.5 11.4543V8.54646ZM6.51797 10.7105L9.375 12.2488V15.8293L3.19297 12.5004L6.51797 10.7105ZM10.625 15.8293V12.2488L13.482 10.7105L16.807 12.5004L10.625 15.8293Z" fill="currentColor"/>
</svg>
