<svg viewBox="0 0 20 20" xmlns="http://www.w3.org/2000/svg">
<path d="M19.375 5H0.625C0.45924 5 0.300269 5.06585 0.183058 5.18306C0.065848 5.30027 0 5.45924 0 5.625C0 5.79076 0.065848 5.94973 0.183058 6.06694C0.300269 6.18415 0.45924 6.25 0.625 6.25H1.25V15C1.25 15.1658 1.31585 15.3247 1.43306 15.4419C1.55027 15.5592 1.70924 15.625 1.875 15.625C2.04076 15.625 2.19973 15.5592 2.31694 15.4419C2.43415 15.3247 2.5 15.1658 2.5 15V11.25H17.5V15C17.5 15.1658 17.5658 15.3247 17.6831 15.4419C17.8003 15.5592 17.9592 15.625 18.125 15.625C18.2908 15.625 18.4497 15.5592 18.5669 15.4419C18.6842 15.3247 18.75 15.1658 18.75 15V6.25H19.375C19.5408 6.25 19.6997 6.18415 19.8169 6.06694C19.9342 5.94973 20 5.79076 20 5.625C20 5.45924 19.9342 5.30027 19.8169 5.18306C19.6997 5.06585 19.5408 5 19.375 5ZM2.5 6.25H9.375V10H2.5V6.25ZM17.5 10H10.625V6.25H17.5V10ZM7.5 8.125C7.5 8.29076 7.43415 8.44973 7.31694 8.56694C7.19973 8.68415 7.04076 8.75 6.875 8.75H5C4.83424 8.75 4.67527 8.68415 4.55806 8.56694C4.44085 8.44973 4.375 8.29076 4.375 8.125C4.375 7.95924 4.44085 7.80027 4.55806 7.68306C4.67527 7.56585 4.83424 7.5 5 7.5H6.875C7.04076 7.5 7.19973 7.56585 7.31694 7.68306C7.43415 7.80027 7.5 7.95924 7.5 8.125ZM12.5 8.125C12.5 7.95924 12.5658 7.80027 12.6831 7.68306C12.8003 7.56585 12.9592 7.5 13.125 7.5H15C15.1658 7.5 15.3247 7.56585 15.4419 7.68306C15.5592 7.80027 15.625 7.95924 15.625 8.125C15.625 8.29076 15.5592 8.44973 15.4419 8.56694C15.3247 8.68415 15.1658 8.75 15 8.75H13.125C12.9592 8.75 12.8003 8.68415 12.6831 8.56694C12.5658 8.44973 12.5 8.29076 12.5 8.125Z" fill="currentColor"/>
</svg>
