<svg viewBox="0 0 4 4" xmlns="http://www.w3.org/2000/svg">
<path d="M1.99119 3.976C1.59652 3.976 1.24985 3.896 0.951188 3.736C0.663188 3.56533 0.439188 3.336 0.279188 3.048C0.119188 2.76 0.0391876 2.43467 0.0391876 2.072C0.0391876 1.69867 0.119188 1.368 0.279188 1.08C0.439188 0.792 0.663188 0.568 0.951188 0.408C1.24985 0.237333 1.59652 0.151999 1.99119 0.151999C2.39652 0.151999 2.74319 0.237333 3.03119 0.408C3.32985 0.568 3.55919 0.792 3.71919 1.08C3.87919 1.368 3.95919 1.69867 3.95919 2.072C3.95919 2.43467 3.87919 2.76 3.71919 3.048C3.55919 3.336 3.32985 3.56533 3.03119 3.736C2.74319 3.896 2.39652 3.976 1.99119 3.976Z" fill="currentColor"/>
</svg>
