<svg  viewBox="0 0 48 48"  xmlns="http://www.w3.org/2000/svg">
<path d="M25.125 24C25.125 24.2225 25.059 24.44 24.9354 24.625C24.8118 24.81 24.6361 24.9542 24.4305 25.0394C24.225 25.1245 23.9988 25.1468 23.7805 25.1034C23.5623 25.06 23.3618 24.9528 23.2045 24.7955C23.0472 24.6382 22.94 24.4377 22.8966 24.2195C22.8532 24.0012 22.8755 23.775 22.9606 23.5695C23.0458 23.3639 23.19 23.1882 23.375 23.0646C23.56 22.941 23.7775 22.875 24 22.875C24.2984 22.875 24.5845 22.9935 24.7955 23.2045C25.0065 23.4155 25.125 23.7016 25.125 24ZM30.375 22.875C30.1525 22.875 29.935 22.941 29.75 23.0646C29.565 23.1882 29.4208 23.3639 29.3356 23.5695C29.2505 23.775 29.2282 24.0012 29.2716 24.2195C29.315 24.4377 29.4222 24.6382 29.5795 24.7955C29.7368 24.9528 29.9373 25.06 30.1555 25.1034C30.3738 25.1468 30.6 25.1245 30.8055 25.0394C31.0111 24.9542 31.1868 24.81 31.3104 24.625C31.434 24.44 31.5 24.2225 31.5 24C31.5 23.7016 31.3815 23.4155 31.1705 23.2045C30.9595 22.9935 30.6734 22.875 30.375 22.875ZM17.625 22.875C17.4025 22.875 17.185 22.941 17 23.0646C16.815 23.1882 16.6708 23.3639 16.5856 23.5695C16.5005 23.775 16.4782 24.0012 16.5216 24.2195C16.565 24.4377 16.6722 24.6382 16.8295 24.7955C16.9868 24.9528 17.1873 25.06 17.4055 25.1034C17.6238 25.1468 17.85 25.1245 18.0555 25.0394C18.2611 24.9542 18.4368 24.81 18.5604 24.625C18.684 24.44 18.75 24.2225 18.75 24C18.75 23.7016 18.6315 23.4155 18.4205 23.2045C18.2095 22.9935 17.9234 22.875 17.625 22.875Z" fill="currentColor"/>
</svg>
