<svg  viewBox="0 0 20 20"  xmlns="http://www.w3.org/2000/svg">
<path d="M11.25 15C11.25 15.1658 11.1842 15.3247 11.0669 15.4419C10.9497 15.5592 10.7908 15.625 10.625 15.625H9.375C9.20924 15.625 9.05027 15.5592 8.93306 15.4419C8.81585 15.3247 8.75 15.1658 8.75 15C8.75 14.8342 8.81585 14.6753 8.93306 14.5581C9.05027 14.4408 9.20924 14.375 9.375 14.375H10.625C10.7908 14.375 10.9497 14.4408 11.0669 14.5581C11.1842 14.6753 11.25 14.8342 11.25 15ZM9.375 5.625H10.625C10.7908 5.625 10.9497 5.55915 11.0669 5.44194C11.1842 5.32473 11.25 5.16576 11.25 5C11.25 4.83424 11.1842 4.67527 11.0669 4.55806C10.9497 4.44085 10.7908 4.375 10.625 4.375H9.375C9.20924 4.375 9.05027 4.44085 8.93306 4.55806C8.81585 4.67527 8.75 4.83424 8.75 5C8.75 5.16576 8.81585 5.32473 8.93306 5.44194C9.05027 5.55915 9.20924 5.625 9.375 5.625ZM10.625 9.375H9.375C9.20924 9.375 9.05027 9.44085 8.93306 9.55806C8.81585 9.67527 8.75 9.83424 8.75 10C8.75 10.1658 8.81585 10.3247 8.93306 10.4419C9.05027 10.5592 9.20924 10.625 9.375 10.625H10.625C10.7908 10.625 10.9497 10.5592 11.0669 10.4419C11.1842 10.3247 11.25 10.1658 11.25 10C11.25 9.83424 11.1842 9.67527 11.0669 9.55806C10.9497 9.44085 10.7908 9.375 10.625 9.375ZM16.875 3.125V16.875C16.875 17.2065 16.7433 17.5245 16.5089 17.7589C16.2745 17.9933 15.9565 18.125 15.625 18.125H4.375C4.04348 18.125 3.72554 17.9933 3.49112 17.7589C3.2567 17.5245 3.125 17.2065 3.125 16.875V3.125C3.125 2.79348 3.2567 2.47554 3.49112 2.24112C3.72554 2.0067 4.04348 1.875 4.375 1.875H15.625C15.9565 1.875 16.2745 2.0067 16.5089 2.24112C16.7433 2.47554 16.875 2.79348 16.875 3.125ZM4.375 11.875H15.625V8.125H4.375V11.875ZM4.375 3.125V6.875H15.625V3.125H4.375ZM15.625 16.875V13.125H4.375V16.875H15.625Z" fill="currentColor"/>
</svg>
