<svg  viewBox="0 0 24 24"  xmlns="http://www.w3.org/2000/svg">
<path d="M21.3779 16.408C21.2922 16.4568 21.1978 16.4883 21.0999 16.5006C21.0021 16.5129 20.9028 16.5058 20.8077 16.4797C20.7126 16.4535 20.6236 16.4089 20.5458 16.3484C20.4679 16.2878 20.4028 16.2125 20.3541 16.1267L18.5729 13.0142C17.5373 13.7144 16.395 14.2419 15.1904 14.5761L15.7407 17.878C15.7569 17.9752 15.7539 18.0746 15.7316 18.1706C15.7094 18.2667 15.6685 18.3574 15.6112 18.4375C15.5539 18.5177 15.4814 18.5858 15.3978 18.638C15.3141 18.6901 15.221 18.7253 15.1238 18.7414C15.0838 18.748 15.0434 18.7514 15.0029 18.7517C14.8255 18.7515 14.6539 18.6883 14.5186 18.5735C14.3834 18.4586 14.2932 18.2996 14.2641 18.1245L13.7232 14.8827C12.5824 15.0414 11.4252 15.0414 10.2844 14.8827L9.74351 18.1245C9.7144 18.2999 9.62396 18.4592 9.48831 18.5741C9.35267 18.6889 9.18063 18.7519 9.00288 18.7517C8.96142 18.7516 8.92005 18.7481 8.87913 18.7414C8.78191 18.7253 8.68883 18.6901 8.6052 18.638C8.52157 18.5858 8.44904 18.5177 8.39175 18.4375C8.33446 18.3574 8.29354 18.2667 8.27132 18.1706C8.2491 18.0746 8.24602 17.9752 8.26226 17.878L8.81538 14.5761C7.61128 14.2408 6.46957 13.7124 5.43476 13.0114L3.65913 16.1267C3.55968 16.3 3.39545 16.4267 3.20258 16.4789C3.00971 16.5312 2.804 16.5046 2.63069 16.4052C2.45739 16.3057 2.3307 16.1415 2.27848 15.9486C2.22626 15.7557 2.2528 15.55 2.35226 15.3767L4.22726 12.0955C3.56866 11.5265 2.96305 10.8989 2.41788 10.2205C2.34989 10.1446 2.29809 10.0556 2.26563 9.959C2.23317 9.8624 2.22073 9.7602 2.22909 9.65863C2.23744 9.55707 2.2664 9.45828 2.3142 9.36828C2.36201 9.27828 2.42765 9.19897 2.50713 9.13518C2.5866 9.0714 2.67824 9.02448 2.77645 8.99729C2.87467 8.9701 2.97739 8.96321 3.07835 8.97704C3.17932 8.99087 3.2764 9.02513 3.36368 9.07773C3.45097 9.13033 3.52661 9.20017 3.58601 9.28298C5.14226 11.2086 7.86476 13.5017 12.0029 13.5017C16.141 13.5017 18.8635 11.2058 20.4198 9.28298C20.4785 9.19847 20.554 9.12696 20.6415 9.07287C20.729 9.01879 20.8268 8.9833 20.9286 8.96862C21.0305 8.95393 21.1342 8.96036 21.2335 8.9875C21.3328 9.01464 21.4254 9.06192 21.5056 9.12639C21.5858 9.19086 21.6518 9.27114 21.6997 9.36224C21.7475 9.45335 21.7761 9.55332 21.7837 9.65594C21.7912 9.75857 21.7775 9.86164 21.7435 9.95876C21.7095 10.0559 21.6559 10.145 21.586 10.2205C21.0408 10.8989 20.4352 11.5265 19.7766 12.0955L21.6516 15.3767C21.702 15.4623 21.7348 15.5569 21.7483 15.6553C21.7618 15.7536 21.7556 15.8536 21.7301 15.9495C21.7047 16.0454 21.6604 16.1354 21.6 16.2141C21.5395 16.2928 21.464 16.3587 21.3779 16.408Z" fill="currentColor"/>
</svg>
