<svg viewBox="0 0 25 24" xmlns="http://www.w3.org/2000/svg">
<path d="M21.8658 4.64346C21.7504 4.37675 21.5591 4.14986 21.3157 3.99101C21.0723 3.83216 20.7877 3.74836 20.497 3.75002H3.99705C3.70673 3.7506 3.42282 3.8354 3.17976 3.99416C2.93669 4.15291 2.74492 4.37879 2.6277 4.64438C2.51049 4.90998 2.47286 5.20389 2.5194 5.49045C2.56593 5.77701 2.69462 6.04391 2.88986 6.25877L2.89736 6.26721L9.24705 13.0472V20.25C9.24698 20.5215 9.3206 20.7879 9.46004 21.0208C9.59948 21.2538 9.79953 21.4445 10.0388 21.5727C10.2782 21.7008 10.5478 21.7617 10.8189 21.7487C11.0901 21.7356 11.3527 21.6493 11.5786 21.4988L14.5786 19.4981C14.7843 19.3612 14.9529 19.1755 15.0695 18.9576C15.1861 18.7398 15.2471 18.4965 15.247 18.2494V13.0472L21.5977 6.26721L21.6052 6.25877C21.8025 6.04489 21.9324 5.77764 21.9788 5.49037C22.0251 5.2031 21.9858 4.90854 21.8658 4.64346ZM14.1539 12.0263C13.8934 12.3024 13.7479 12.6675 13.747 13.0472V18.2494L10.747 20.25V13.0472C10.7479 12.6662 10.603 12.2992 10.342 12.0216L3.99705 5.25002H20.497L14.1539 12.0263Z" fill="currentColor"/>
</svg>
