<svg viewBox="0 0 20 20"  xmlns="http://www.w3.org/2000/svg">
<path d="M16.25 3.75045C15.2988 3.74959 14.3579 3.9473 13.4875 4.33092C12.3078 2.34889 10.3688 1.36217 10.2797 1.31607C10.1929 1.27262 10.0971 1.25 10 1.25C9.9029 1.25 9.80714 1.27262 9.72031 1.31607C9.63125 1.36139 7.68906 2.34889 6.5125 4.33092C5.64209 3.9473 4.70119 3.74959 3.75 3.75045C3.58424 3.75045 3.42527 3.8163 3.30806 3.93351C3.19085 4.05072 3.125 4.20969 3.125 4.37545V7.50045C3.12706 9.21498 3.76889 10.867 4.92487 12.1332C6.08084 13.3995 7.66775 14.1887 9.375 14.3465V17.1145L6.52969 15.6911C6.45623 15.6543 6.37626 15.6324 6.29433 15.6266C6.21241 15.6208 6.13015 15.6312 6.05223 15.6571C5.97432 15.6831 5.90228 15.7242 5.84024 15.778C5.77819 15.8318 5.72735 15.8973 5.69062 15.9708C5.6539 16.0442 5.63199 16.1242 5.62617 16.2061C5.62035 16.288 5.63072 16.3703 5.65669 16.4482C5.68266 16.5261 5.72373 16.5982 5.77754 16.6602C5.83135 16.7223 5.89685 16.7731 5.97031 16.8098L9.72031 18.6848C9.80714 18.7283 9.9029 18.7509 10 18.7509C10.0971 18.7509 10.1929 18.7283 10.2797 18.6848L14.0297 16.8098C14.178 16.7356 14.2909 16.6056 14.3433 16.4482C14.3958 16.2909 14.3836 16.1191 14.3094 15.9708C14.2352 15.8224 14.1051 15.7096 13.9478 15.6571C13.7904 15.6047 13.6187 15.6169 13.4703 15.6911L10.625 17.1145V14.3465C12.3323 14.1887 13.9192 13.3995 15.0751 12.1332C16.2311 10.867 16.8729 9.21498 16.875 7.50045V4.37545C16.875 4.20969 16.8092 4.05072 16.6919 3.93351C16.5747 3.8163 16.4158 3.75045 16.25 3.75045ZM9.375 13.0911C8.00054 12.9357 6.73131 12.28 5.80921 11.249C4.8871 10.2179 4.3766 8.88366 4.375 7.50045V5.03482C5.74946 5.19022 7.01869 5.84591 7.94079 6.87694C8.8629 7.90796 9.3734 9.24223 9.375 10.6254V13.0911ZM10 7.76295C9.47422 6.62066 8.64654 5.6436 7.60625 4.93717C8.35391 3.70357 9.48125 2.91373 10 2.59342C10.5195 2.91217 11.6469 3.70201 12.3938 4.93717C11.3536 5.64378 10.526 6.62079 10 7.76295ZM15.625 7.50045C15.6234 8.88366 15.1129 10.2179 14.1908 11.249C13.2687 12.28 11.9995 12.9357 10.625 13.0911V10.6254C10.6266 9.24223 11.1371 7.90796 12.0592 6.87694C12.9813 5.84591 14.2505 5.19022 15.625 5.03482V7.50045Z" fill="currentColor"/>
</svg>
