<svg viewBox="0 0 32 32" xmlns="http://www.w3.org/2000/svg">
<path d="M9.00001 10.9996V4.99962C9.00001 4.73441 9.10537 4.48005 9.2929 4.29252C9.48044 4.10498 9.73479 3.99962 10 3.99962C10.2652 3.99962 10.5196 4.10498 10.7071 4.29252C10.8947 4.48005 11 4.73441 11 4.99962V10.9996C11 11.2648 10.8947 11.5192 10.7071 11.7067C10.5196 11.8943 10.2652 11.9996 10 11.9996C9.73479 11.9996 9.48044 11.8943 9.2929 11.7067C9.10537 11.5192 9.00001 11.2648 9.00001 10.9996ZM27 4.99962V27.9996C27 28.2648 26.8947 28.5192 26.7071 28.7067C26.5196 28.8943 26.2652 28.9996 26 28.9996C25.7348 28.9996 25.4804 28.8943 25.2929 28.7067C25.1054 28.5192 25 28.2648 25 27.9996V21.9996H19C18.7348 21.9996 18.4804 21.8943 18.2929 21.7067C18.1054 21.5192 18 21.2648 18 20.9996C18.0464 18.6042 18.349 16.2207 18.9025 13.8896C20.125 8.82837 22.4425 5.43587 25.6063 4.08087C25.7583 4.01574 25.9242 3.98934 26.0889 4.00405C26.2537 4.01877 26.4123 4.07412 26.5504 4.16517C26.6885 4.25622 26.8019 4.38011 26.8803 4.52574C26.9588 4.67137 26.9999 4.8342 27 4.99962ZM25 6.73712C20.9788 9.80837 20.1913 17.2896 20.0375 19.9996H25V6.73712ZM14.9863 4.83587C14.9667 4.70457 14.9211 4.57847 14.8523 4.46495C14.7835 4.35143 14.6927 4.25274 14.5854 4.17466C14.478 4.09657 14.3562 4.04065 14.227 4.01015C14.0977 3.97965 13.9638 3.97518 13.8328 3.997C13.7018 4.01883 13.5766 4.06651 13.4642 4.13727C13.3519 4.20803 13.2548 4.30045 13.1785 4.40913C13.1023 4.51782 13.0485 4.6406 13.0202 4.77031C12.9919 4.90002 12.9897 5.03406 13.0138 5.16462L14 11.0784C14 12.1392 13.5786 13.1567 12.8284 13.9068C12.0783 14.6569 11.0609 15.0784 10 15.0784C8.93914 15.0784 7.92173 14.6569 7.17158 13.9068C6.42144 13.1567 6.00001 12.1392 6.00001 11.0784L6.98501 5.16462C7.00907 5.03406 7.00689 4.90002 6.9786 4.77031C6.95031 4.6406 6.89648 4.51782 6.82024 4.40913C6.744 4.30045 6.64688 4.20803 6.53455 4.13727C6.42222 4.06651 6.29692 4.01883 6.16597 3.997C6.03501 3.97518 5.90103 3.97965 5.77182 4.01015C5.64261 4.04065 5.52077 4.09657 5.4134 4.17466C5.30603 4.25274 5.21529 4.35143 5.14646 4.46495C5.07763 4.57847 5.03209 4.70457 5.01251 4.83587L4.01251 10.8359C4.00395 10.89 3.99977 10.9448 4.00001 10.9996C4.00201 12.4169 4.50491 13.7878 5.41984 14.8702C6.33478 15.9526 7.60286 16.6767 9.00001 16.9146V27.9996C9.00001 28.2648 9.10537 28.5192 9.2929 28.7067C9.48044 28.8943 9.73479 28.9996 10 28.9996C10.2652 28.9996 10.5196 28.8943 10.7071 28.7067C10.8947 28.5192 11 28.2648 11 27.9996V16.9146C12.3972 16.6767 13.6652 15.9526 14.5802 14.8702C15.4951 13.7878 15.998 12.4169 16 10.9996C15.9998 10.9448 15.9952 10.89 15.9863 10.8359L14.9863 4.83587Z" fill="currentColor"/>
</svg>
