<svg viewBox="0 0 24 24" fill="none" xmlns="http://www.w3.org/2000/svg">
<path d="M22.4822 9.32957C21.9956 15.6502 12.7603 20.6949 12.3572 20.9114C12.248 20.9702 12.1259 21.0009 12.0019 21.0009C11.8779 21.0009 11.7558 20.9702 11.6466 20.9114C11.2313 20.6893 1.5 15.3764 1.5 8.81394C1.49974 7.76101 1.7855 6.72778 2.32675 5.82461C2.86801 4.92144 3.64443 4.18226 4.5731 3.68602C5.50176 3.18978 6.54778 2.95511 7.59943 3.00709C8.65108 3.05906 9.66886 3.39573 10.5441 3.98113C10.5904 4.01188 10.6294 4.05257 10.6581 4.10025C10.6868 4.14792 10.7045 4.20139 10.71 4.25677C10.7155 4.31215 10.7086 4.36805 10.6898 4.42042C10.6709 4.4728 10.6407 4.52033 10.6012 4.55957L9.34875 5.81394C9.2082 5.95458 9.12925 6.14527 9.12925 6.3441C9.12925 6.54292 9.2082 6.73362 9.34875 6.87425L12.3984 9.92394L10.4062 11.9077C10.3337 11.9766 10.2756 12.0594 10.2356 12.1512C10.1955 12.2429 10.1742 12.3417 10.1729 12.4418C10.1716 12.5419 10.1904 12.6413 10.2281 12.734C10.2658 12.8267 10.3217 12.911 10.3925 12.9818C10.4633 13.0525 10.5475 13.1084 10.6403 13.1462C10.733 13.1839 10.8323 13.2026 10.9324 13.2014C11.0325 13.2001 11.1314 13.1788 11.2231 13.1387C11.3148 13.0986 11.3976 13.0406 11.4666 12.968L13.9866 10.4489C14.1271 10.3083 14.2061 10.1176 14.2061 9.91879C14.2061 9.71996 14.1271 9.52927 13.9866 9.38863L10.9406 6.34175L12.5784 4.70394C13.1215 4.15814 13.7681 3.72638 14.4803 3.43401C15.1926 3.14164 15.9561 2.99457 16.7259 3.00144C20.1309 3.023 22.7428 5.93488 22.4822 9.32957Z" fill="#00B0A4"/>
</svg>
