<svg  viewBox="0 0 25 24"  xmlns="http://www.w3.org/2000/svg">
<path d="M12.75 6C12.0083 6 11.2833 6.21993 10.6666 6.63199C10.0499 7.04404 9.56928 7.62971 9.28545 8.31494C9.00162 9.00016 8.92736 9.75416 9.07205 10.4816C9.21675 11.209 9.5739 11.8772 10.0983 12.4017C10.6228 12.9261 11.291 13.2833 12.0184 13.4279C12.7458 13.5726 13.4998 13.4984 14.1851 13.2145C14.8703 12.9307 15.456 12.4501 15.868 11.8334C16.2801 11.2167 16.5 10.4917 16.5 9.75C16.5 8.75544 16.1049 7.80161 15.4017 7.09835C14.6984 6.39509 13.7446 6 12.75 6ZM12.75 12C12.305 12 11.87 11.868 11.5 11.6208C11.13 11.3736 10.8416 11.0222 10.6713 10.611C10.501 10.1999 10.4564 9.7475 10.5432 9.31105C10.63 8.87459 10.8443 8.47368 11.159 8.15901C11.4737 7.84434 11.8746 7.63005 12.311 7.54323C12.7475 7.45642 13.1999 7.50097 13.611 7.67127C14.0222 7.84157 14.3736 8.12996 14.6208 8.49997C14.868 8.86998 15 9.30499 15 9.75C15 10.3467 14.7629 10.919 14.341 11.341C13.919 11.7629 13.3467 12 12.75 12ZM12.75 1.5C10.5627 1.50248 8.46575 2.37247 6.91911 3.91911C5.37247 5.46575 4.50248 7.56273 4.5 9.75C4.5 12.6938 5.86031 15.8138 8.4375 18.7734C9.59552 20.1108 10.8989 21.3151 12.3234 22.3641C12.4495 22.4524 12.5998 22.4998 12.7537 22.4998C12.9077 22.4998 13.058 22.4524 13.1841 22.3641C14.606 21.3147 15.9068 20.1104 17.0625 18.7734C19.6359 15.8138 21 12.6938 21 9.75C20.9975 7.56273 20.1275 5.46575 18.5809 3.91911C17.0343 2.37247 14.9373 1.50248 12.75 1.5ZM12.75 20.8125C11.2003 19.5938 6 15.1172 6 9.75C6 7.95979 6.71116 6.2429 7.97703 4.97703C9.2429 3.71116 10.9598 3 12.75 3C14.5402 3 16.2571 3.71116 17.523 4.97703C18.7888 6.2429 19.5 7.95979 19.5 9.75C19.5 15.1153 14.2997 19.5938 12.75 20.8125Z" fill="currentColor"/>
</svg>
