<svg width="85" height="36" viewBox="0 0 85 36" fill="none" xmlns="http://www.w3.org/2000/svg">
<path d="M57.4651 19.8317H53.1279L53.1193 19.8231C52.8722 20.7339 52.3875 21.4425 51.6643 21.9463C50.9059 22.4951 49.9546 22.7604 48.8173 22.7604C48.1562 22.7604 47.5389 22.6723 46.9655 22.5132C46.4016 22.3447 45.8989 22.1062 45.4762 21.7873C45.0173 21.4598 44.6738 21.0441 44.4267 20.5395C44.1797 20.0443 44.0566 19.4601 44.0479 18.8051V17.2038C44.0479 16.8711 44.0807 16.5599 44.1452 16.267C44.2055 15.9905 44.2942 15.7312 44.4095 15.4866C44.6557 14.9915 44.9906 14.5663 45.4409 14.2215C45.8722 13.8853 46.3836 13.6373 46.9569 13.4688C47.5389 13.3011 48.1648 13.2216 48.8432 13.2216C49.9632 13.2216 50.9059 13.4783 51.6729 14.0003C52.44 14.5309 52.9342 15.2741 53.1365 16.2212H57.4737C57.3764 15.5307 57.1982 14.893 56.9382 14.3045C56.8452 14.0936 56.7411 13.8888 56.6274 13.69C56.1952 12.9382 55.6314 12.2927 54.9177 11.7612C53.4188 10.655 51.4086 10.0977 48.8785 10.0977C48.2302 10.0977 47.6164 10.1279 47.0344 10.1893C46.2553 10.2705 45.5339 10.4062 44.8675 10.5928C43.7036 10.9203 42.7342 11.4077 41.9499 12.036C41.1734 12.6547 40.5923 13.4074 40.204 14.2924C39.8072 15.1773 39.6135 16.1685 39.6135 17.2746V18.7256C39.6135 19.8317 39.8072 20.8229 40.1954 21.7078C40.5828 22.5927 41.1648 23.3446 41.9319 23.9556C42.7161 24.5924 43.6864 25.0703 44.8503 25.4065C46.0134 25.734 47.3452 25.9025 48.8612 25.9025C50.1655 25.9025 51.3294 25.7522 52.3522 25.4506C53.3835 25.1498 54.2651 24.716 54.9969 24.1586C55.6933 23.6367 56.2486 22.9998 56.6627 22.2652C57.0768 21.5307 57.342 20.7253 57.4651 19.8317Z" fill="#03163D"/>
<path fill-rule="evenodd" clip-rule="evenodd" d="M6.9113 10.4338L0 25.5569H4.52231L5.81796 22.4424H13.6556L14.9513 25.5569H19.4736L12.5623 10.4338H6.9113ZM9.50348 13.5224H9.96147L12.4211 19.4688H7.03527L9.50348 13.5224Z" fill="#03163D"/>
<path d="M37.6119 10.4338V25.5569H33.4339L33.5131 16.7613L33.6362 15.6638H33.5751L24.9179 25.5569H20.5893V10.4338H24.7767L24.7061 19.5569L24.583 20.5749H24.6536L33.4339 10.4338H37.6119Z" fill="#03163D"/>
<path d="M84.3268 13.3496C84.3268 13.3496 84.2867 13.3184 84.2644 13.3006L64.1878 0.102035C63.7819 -0.165594 63.2422 0.124337 63.2422 0.610528V9.33521C63.2422 9.54039 63.3448 9.73219 63.5187 9.8437L76.579 18.439L84.3268 13.3452V13.3496Z" fill="#00B0A4"/>
<path d="M84.0659 13.1993L83.3862 12.7535L83.3508 12.7314C83.3508 12.7314 83.342 12.7314 83.3729 12.7535C83.6333 12.9742 83.4259 13.1552 83.3773 13.1861L63.5158 26.2461C63.3437 26.3564 63.2422 26.5462 63.2422 26.7492V35.3956C63.2422 35.8767 63.7763 36.1636 64.1779 35.8988L84.0394 22.8255C84.2071 22.7152 84.313 22.5254 84.313 22.3223V13.6892C84.313 13.4818 84.2115 13.3052 84.0659 13.1993Z" fill="#03163D"/>
</svg>

