<svg  viewBox="0 0 24 24"  xmlns="http://www.w3.org/2000/svg">
<g clip-path="url(#clip0_2484_16148)">
<path d="M12 11.9356C13.1754 11.9356 14.2333 11.4654 15.0027 10.6961C15.7721 9.92668 16.2422 8.85812 16.2422 7.69338C16.2422 6.51796 15.7721 5.46008 15.0027 4.69071C14.2333 3.92134 13.1754 3.45117 12 3.45117C10.8246 3.45117 9.76672 3.92134 8.99735 4.69071C8.22798 5.46008 7.75781 6.51796 7.75781 7.69338C7.75781 8.8688 8.22798 9.92668 8.99735 10.6961C9.76672 11.4547 10.8246 11.9356 12 11.9356ZM10.6429 6.32562C10.9956 5.97299 11.4764 5.75928 12 5.75928C12.5343 5.75928 13.0152 5.97299 13.3571 6.32562C13.7097 6.67824 13.9234 7.1591 13.9234 7.68269C13.9234 8.20629 13.7097 8.69783 13.3571 9.03977C13.0045 9.3924 12.5236 9.60611 12 9.60611C11.4657 9.60611 10.9849 9.3924 10.6429 9.03977C10.2903 8.68715 10.0766 8.20629 10.0766 7.68269C10.0766 7.1591 10.2903 6.67824 10.6429 6.32562Z" stroke="currentColor" stroke-width="1.2" stroke-linejoin="round"/>
<path d="M17.7061 13.6454L16.4558 11.9464C16.381 11.8502 16.2528 11.8395 16.1566 11.9143C14.9812 12.9188 13.5386 13.5599 11.9892 13.5599C10.4398 13.5599 8.99724 12.9081 7.82182 11.9143C7.73633 11.8395 7.59742 11.8502 7.52262 11.9464L6.28308 13.6454C6.21897 13.7309 6.24034 13.8484 6.31514 13.9125C7.2197 14.651 8.25182 15.1741 9.33576 15.4958C9.59169 15.5717 9.72002 15.8654 9.58815 16.0975L7.22342 20.2598C7.1593 20.3881 7.25548 20.5483 7.40508 20.5483H9.98032C10.0551 20.5483 10.1299 20.5056 10.162 20.4308L11.6349 17.1425C11.7761 16.8272 12.2237 16.8272 12.365 17.1425L13.8378 20.4308C13.8699 20.5056 13.9447 20.5483 14.0195 20.5483H16.5947C16.7443 20.5483 16.8405 20.3881 16.7657 20.2598L14.401 16.0975C14.2691 15.8654 14.3975 15.5717 14.6533 15.4956C15.7349 15.1739 16.7589 14.6508 17.6633 13.9125C17.7488 13.8484 17.7595 13.7309 17.7061 13.6454Z" stroke="currentColor" stroke-width="1.2" stroke-linejoin="round"/>
</g>
<defs>
<clipPath id="clip0_2484_16148">
<rect width="24" height="24" fill="currentColor"/>
</clipPath>
</defs>
</svg>
