<svg viewBox="0 0 20 20" xmlns="http://www.w3.org/2000/svg">
<path d="M16.25 2.5H3.75C3.41848 2.5 3.10054 2.6317 2.86612 2.86612C2.6317 3.10054 2.5 3.41848 2.5 3.75V16.25C2.5 16.5815 2.6317 16.8995 2.86612 17.1339C3.10054 17.3683 3.41848 17.5 3.75 17.5H16.25C16.5815 17.5 16.8995 17.3683 17.1339 17.1339C17.3683 16.8995 17.5 16.5815 17.5 16.25V3.75C17.5 3.41848 17.3683 3.10054 17.1339 2.86612C16.8995 2.6317 16.5815 2.5 16.25 2.5ZM16.25 16.25H3.75V3.75H16.25V16.25ZM5.625 5.9375C5.625 5.75208 5.67998 5.57082 5.783 5.41665C5.88601 5.26248 6.03243 5.14232 6.20373 5.07136C6.37504 5.00041 6.56354 4.98184 6.7454 5.01801C6.92725 5.05419 7.0943 5.14348 7.22541 5.27459C7.35652 5.4057 7.44581 5.57275 7.48199 5.7546C7.51816 5.93646 7.49959 6.12496 7.42864 6.29627C7.35768 6.46757 7.23752 6.61399 7.08335 6.717C6.92918 6.82002 6.74792 6.875 6.5625 6.875C6.31386 6.875 6.0754 6.77623 5.89959 6.60041C5.72377 6.4246 5.625 6.18614 5.625 5.9375ZM9.0625 5.9375C9.0625 5.75208 9.11748 5.57082 9.2205 5.41665C9.32351 5.26248 9.46993 5.14232 9.64123 5.07136C9.81254 5.00041 10.001 4.98184 10.1829 5.01801C10.3648 5.05419 10.5318 5.14348 10.6629 5.27459C10.794 5.4057 10.8833 5.57275 10.9195 5.7546C10.9557 5.93646 10.9371 6.12496 10.8661 6.29627C10.7952 6.46757 10.675 6.61399 10.5208 6.717C10.3667 6.82002 10.1854 6.875 10 6.875C9.75136 6.875 9.5129 6.77623 9.33709 6.60041C9.16127 6.4246 9.0625 6.18614 9.0625 5.9375ZM12.5 5.9375C12.5 5.75208 12.555 5.57082 12.658 5.41665C12.761 5.26248 12.9074 5.14232 13.0787 5.07136C13.25 5.00041 13.4385 4.98184 13.6204 5.01801C13.8023 5.05419 13.9693 5.14348 14.1004 5.27459C14.2315 5.4057 14.3208 5.57275 14.357 5.7546C14.3932 5.93646 14.3746 6.12496 14.3036 6.29627C14.2327 6.46757 14.1125 6.61399 13.9583 6.717C13.8042 6.82002 13.6229 6.875 13.4375 6.875C13.1889 6.875 12.9504 6.77623 12.7746 6.60041C12.5988 6.4246 12.5 6.18614 12.5 5.9375ZM14.375 8.125H5.625C5.45924 8.125 5.30027 8.19085 5.18306 8.30806C5.06585 8.42527 5 8.58424 5 8.75V14.375C5 14.5408 5.06585 14.6997 5.18306 14.8169C5.30027 14.9342 5.45924 15 5.625 15H14.375C14.5408 15 14.6997 14.9342 14.8169 14.8169C14.9342 14.6997 15 14.5408 15 14.375V8.75C15 8.58424 14.9342 8.42527 14.8169 8.30806C14.6997 8.19085 14.5408 8.125 14.375 8.125ZM13.75 13.75H6.25V9.375H13.75V13.75Z" fill="currentColor"/>
</svg>
