<svg viewBox="0 0 32 32" xmlns="http://www.w3.org/2000/svg">
<path d="M25.7078 7.70521L7.70779 25.7052C7.52015 25.8929 7.26566 25.9983 7.00029 25.9983C6.73493 25.9983 6.48043 25.8929 6.29279 25.7052C6.10515 25.5176 5.99974 25.2631 5.99974 24.9977C5.99974 24.7324 6.10515 24.4779 6.29279 24.2902L24.2928 6.29021C24.4803 6.10257 24.7346 5.99709 24.9999 5.99698C25.2651 5.99686 25.5195 6.10211 25.7072 6.28959C25.8948 6.47706 26.0003 6.7314 26.0004 6.99665C26.0005 7.26189 25.8953 7.51632 25.7078 7.70396V7.70521ZM6.31779 12.6802C5.47391 11.8362 4.99988 10.6915 5 9.4979C5.00012 8.30435 5.47437 7.15973 6.31842 6.31584C7.16247 5.47195 8.30718 4.99793 9.50073 4.99805C10.6943 4.99816 11.8389 5.47241 12.6828 6.31646C13.5267 7.16052 14.0007 8.30523 14.0006 9.49878C14.0005 10.6923 13.5262 11.837 12.6822 12.6808C11.8381 13.5247 10.6934 13.9987 9.49985 13.9986C8.3063 13.9985 7.16168 13.5243 6.31779 12.6802ZM7.00029 9.50021C7.00062 9.91127 7.10229 10.3159 7.29632 10.6783C7.49035 11.0407 7.77074 11.3496 8.11267 11.5778C8.4546 11.806 8.84751 11.9463 9.25661 11.9863C9.66572 12.0264 10.0784 11.965 10.4581 11.8075C10.8378 11.65 11.1728 11.4013 11.4334 11.0835C11.6941 10.7656 11.8723 10.3884 11.9524 9.98521C12.0325 9.58203 12.0119 9.16532 11.8925 8.77199C11.7731 8.37865 11.5585 8.02083 11.2678 7.73021C10.918 7.38054 10.4724 7.14247 9.98726 7.04613C9.50214 6.94979 8.99935 6.99951 8.5425 7.189C8.08565 7.37848 7.69527 7.69922 7.42075 8.11063C7.14623 8.52204 6.9999 9.00563 7.00029 9.50021ZM27.0003 22.5002C27.0001 23.5413 26.6388 24.5501 25.9782 25.3547C25.3176 26.1593 24.3984 26.71 23.3773 26.9129C22.3561 27.1158 21.2962 26.9583 20.3782 26.4674C19.4601 25.9764 18.7407 25.1823 18.3425 24.2204C17.9443 23.2585 17.8919 22.1883 18.1943 21.1921C18.4967 20.1959 19.1352 19.3354 20.0009 18.7571C20.8666 18.1789 21.9061 17.9187 22.9421 18.0209C23.9782 18.1231 24.9468 18.5814 25.6828 19.3177C26.102 19.7347 26.4342 20.2307 26.6604 20.777C26.8865 21.3233 27.0021 21.909 27.0003 22.5002ZM25.0003 22.5002C25.0004 21.9218 24.8 21.3613 24.4331 20.9141C24.0663 20.4669 23.5558 20.1608 22.9885 20.0478C22.4212 19.9349 21.8324 20.0221 21.3222 20.2947C20.8121 20.5672 20.4122 21.0082 20.1908 21.5426C19.9693 22.0769 19.94 22.6715 20.1078 23.225C20.2756 23.7785 20.6302 24.2567 21.111 24.5781C21.5919 24.8995 22.1693 25.0443 22.7449 24.9877C23.3206 24.9311 23.8587 24.6766 24.2678 24.2677C24.5007 24.0362 24.6853 23.7607 24.8111 23.4573C24.9368 23.1539 25.0011 22.8286 25.0003 22.5002Z" fill="currentColor"/>
</svg>
