<svg viewBox="0 0 24 24"  xmlns="http://www.w3.org/2000/svg">
<path d="M16.5032 14.9991C16.0028 14.9989 15.5076 15.0992 15.0467 15.2939C14.5858 15.4885 14.1687 15.7737 13.82 16.1325L9.49815 13.3547C9.83812 12.4829 9.83812 11.5153 9.49815 10.6435L13.82 7.86566C14.4692 8.53065 15.3422 8.9309 16.2697 8.98881C17.1972 9.04672 18.1132 8.75818 18.84 8.17911C19.5669 7.60004 20.0528 6.77171 20.2037 5.85471C20.3545 4.93771 20.1595 3.99737 19.6564 3.21601C19.1533 2.43464 18.378 1.86792 17.4808 1.6257C16.5836 1.38349 15.6284 1.48306 14.8004 1.90509C13.9724 2.32712 13.3307 3.04155 12.9995 3.90987C12.6684 4.77819 12.6715 5.73854 13.0082 6.60472L8.68628 9.38253C8.16584 8.84823 7.49789 8.48126 6.76782 8.32854C6.03774 8.17583 5.27871 8.24429 4.58774 8.52519C3.89678 8.80609 3.30528 9.28666 2.88885 9.90547C2.47243 10.5243 2.25 11.2532 2.25 11.9991C2.25 12.745 2.47243 13.4739 2.88885 14.0927C3.30528 14.7115 3.89678 15.1921 4.58774 15.473C5.27871 15.7539 6.03774 15.8224 6.76782 15.6697C7.49789 15.5169 8.16584 15.15 8.68628 14.6157L13.0082 17.3935C12.7186 18.1402 12.6758 18.96 12.8859 19.7329C13.096 20.5058 13.5481 21.191 14.1758 21.6884C14.8036 22.1858 15.5741 22.4691 16.3745 22.4968C17.1749 22.5246 17.9632 22.2954 18.624 21.8427C19.2847 21.3901 19.7831 20.7378 20.0463 19.9813C20.3095 19.2249 20.3236 18.4041 20.0865 17.6391C19.8494 16.8741 19.3736 16.205 18.7288 15.73C18.084 15.2549 17.3041 14.9988 16.5032 14.9991ZM16.5032 2.9991C16.9482 2.9991 17.3832 3.13106 17.7532 3.37829C18.1232 3.62552 18.4116 3.97693 18.5819 4.38806C18.7522 4.79919 18.7967 5.25159 18.7099 5.68805C18.6231 6.12451 18.4088 6.52542 18.0941 6.84009C17.7795 7.15476 17.3786 7.36905 16.9421 7.45586C16.5057 7.54268 16.0533 7.49812 15.6421 7.32783C15.231 7.15753 14.8796 6.86914 14.6323 6.49913C14.3851 6.12912 14.2532 5.69411 14.2532 5.2491C14.2532 4.65236 14.4902 4.08006 14.9122 3.65811C15.3341 3.23615 15.9064 2.9991 16.5032 2.9991ZM6.00315 14.2491C5.55815 14.2491 5.12313 14.1171 4.75312 13.8699C4.38311 13.6227 4.09472 13.2713 3.92443 12.8601C3.75413 12.449 3.70957 11.9966 3.79639 11.5601C3.88321 11.1237 4.0975 10.7228 4.41216 10.4081C4.72683 10.0934 5.12774 9.87915 5.5642 9.79233C6.00066 9.70551 6.45306 9.75007 6.86419 9.92037C7.27533 10.0907 7.62673 10.3791 7.87396 10.7491C8.12119 11.1191 8.25315 11.5541 8.25315 11.9991C8.25315 12.5958 8.0161 13.1681 7.59415 13.5901C7.17219 14.012 6.59989 14.2491 6.00315 14.2491ZM16.5032 20.9991C16.0581 20.9991 15.6231 20.8671 15.2531 20.6199C14.8831 20.3727 14.5947 20.0213 14.4244 19.6101C14.2541 19.199 14.2096 18.7466 14.2964 18.3101C14.3832 17.8737 14.5975 17.4728 14.9122 17.1581C15.2268 16.8434 15.6277 16.6291 16.0642 16.5423C16.5007 16.4555 16.9531 16.5001 17.3642 16.6704C17.7753 16.8407 18.1267 17.1291 18.374 17.4991C18.6212 17.8691 18.7532 18.3041 18.7532 18.7491C18.7532 19.3458 18.5161 19.9181 18.0941 20.3401C17.6722 20.762 17.0999 20.9991 16.5032 20.9991Z" fill="currentColor"/>
</svg>
