<svg  viewBox="0 0 24 24"  xmlns="http://www.w3.org/2000/svg">
<path d="M11.031 15.97C11.1008 16.0396 11.1561 16.1223 11.1938 16.2134C11.2316 16.3044 11.251 16.402 11.251 16.5006C11.251 16.5992 11.2316 16.6967 11.1938 16.7878C11.1561 16.8788 11.1008 16.9616 11.031 17.0312L8.03104 20.0312C7.96139 20.1009 7.87867 20.1563 7.78762 20.194C7.69657 20.2318 7.59898 20.2512 7.50042 20.2512C7.40186 20.2512 7.30426 20.2318 7.21321 20.194C7.12216 20.1563 7.03945 20.1009 6.96979 20.0312L3.96979 17.0312C3.90011 16.9615 3.84483 16.8788 3.80712 16.7878C3.76941 16.6967 3.75 16.5991 3.75 16.5006C3.75 16.402 3.76941 16.3045 3.80712 16.2134C3.84483 16.1224 3.90011 16.0396 3.96979 15.97C4.11052 15.8292 4.30139 15.7502 4.50042 15.7502C4.59896 15.7502 4.69654 15.7696 4.78759 15.8073C4.87863 15.845 4.96136 15.9003 5.03104 15.97L6.75042 17.6903V4.50059C6.75042 4.30168 6.82943 4.11091 6.97009 3.97026C7.11074 3.82961 7.3015 3.75059 7.50042 3.75059C7.69933 3.75059 7.89009 3.82961 8.03075 3.97026C8.1714 4.11091 8.25042 4.30168 8.25042 4.50059V17.6903L9.96979 15.97C10.0394 15.9002 10.1222 15.8449 10.2132 15.8072C10.3043 15.7694 10.4019 15.75 10.5004 15.75C10.599 15.75 10.6966 15.7694 10.7876 15.8072C10.8787 15.8449 10.9614 15.9002 11.031 15.97ZM20.031 6.96996L17.031 3.96997C16.9614 3.90023 16.8787 3.84491 16.7876 3.80717C16.6966 3.76943 16.599 3.75 16.5004 3.75C16.4019 3.75 16.3043 3.76943 16.2132 3.80717C16.1222 3.84491 16.0394 3.90023 15.9698 3.96997L12.9698 6.96996C12.8291 7.1107 12.75 7.30157 12.75 7.50059C12.75 7.69961 12.8291 7.89048 12.9698 8.03122C13.1105 8.17195 13.3014 8.25101 13.5004 8.25101C13.6994 8.25101 13.8903 8.17195 14.031 8.03122L15.7504 6.3109V19.5006C15.7504 19.6995 15.8294 19.8903 15.9701 20.0309C16.1107 20.1716 16.3015 20.2506 16.5004 20.2506C16.6993 20.2506 16.8901 20.1716 17.0307 20.0309C17.1714 19.8903 17.2504 19.6995 17.2504 19.5006V6.3109L18.9698 8.03122C19.1105 8.17195 19.3014 8.25101 19.5004 8.25101C19.6994 8.25101 19.8903 8.17195 20.031 8.03122C20.1718 7.89048 20.2508 7.69961 20.2508 7.50059C20.2508 7.30157 20.1718 7.1107 20.031 6.96996Z" fill="currentColor"/>
</svg>
