<svg viewBox="0 0 20 20"  xmlns="http://www.w3.org/2000/svg">
<path d="M0.936763 8.67223L9.68676 13.6722C9.78121 13.7262 9.88812 13.7546 9.99692 13.7546C10.1057 13.7546 10.2126 13.7262 10.3071 13.6722L19.0571 8.67223C19.1529 8.61761 19.2325 8.53861 19.2879 8.44324C19.3434 8.34788 19.3725 8.23955 19.3725 8.12926C19.3725 8.01897 19.3434 7.91065 19.2879 7.81528C19.2325 7.71992 19.1529 7.64092 19.0571 7.58629L10.3071 2.58629C10.2126 2.5323 10.1057 2.50391 9.99692 2.50391C9.88812 2.50391 9.78121 2.5323 9.68676 2.58629L0.936763 7.58629C0.840948 7.64092 0.761293 7.71992 0.705886 7.81528C0.650479 7.91065 0.621294 8.01897 0.621294 8.12926C0.621294 8.23955 0.650479 8.34788 0.705886 8.44324C0.761293 8.53861 0.840948 8.61761 0.936763 8.67223ZM9.99926 3.84489L17.4891 8.12536L9.99926 12.4058L2.50942 8.12536L9.99926 3.84489ZM19.2914 10.9379C19.3333 11.0092 19.3606 11.0882 19.3717 11.1702C19.3829 11.2522 19.3776 11.3356 19.3562 11.4155C19.3348 11.4955 19.2978 11.5704 19.2473 11.6359C19.1967 11.7014 19.1337 11.7563 19.0618 11.7972L10.3118 16.7972C10.2173 16.8512 10.1104 16.8796 10.0016 16.8796C9.89281 16.8796 9.7859 16.8512 9.69145 16.7972L0.936763 11.7972C0.865202 11.7562 0.802426 11.7015 0.752018 11.6362C0.701609 11.5709 0.664556 11.4963 0.642974 11.4167C0.621391 11.337 0.615703 11.2539 0.626232 11.1721C0.636761 11.0903 0.663303 11.0114 0.704341 10.9398C0.745379 10.8682 0.80011 10.8055 0.865409 10.7551C0.930708 10.7047 1.0053 10.6676 1.08492 10.646C1.24571 10.6024 1.41724 10.6245 1.56176 10.7074L9.99926 15.5308L18.4368 10.7074C18.508 10.6663 18.5866 10.6396 18.6682 10.629C18.7497 10.6183 18.8325 10.6238 18.9119 10.6452C18.9913 10.6666 19.0657 10.7035 19.1309 10.7537C19.196 10.8039 19.2506 10.8665 19.2914 10.9379Z" fill="currentColor"/>
</svg>
