<svg  viewBox="0 0 24 24"  xmlns="http://www.w3.org/2000/svg">
<path d="M12.9255 18.2949C6.38561 18.2949 2.60373 13.9545 2.31711 6.70533C2.30825 6.48128 2.48901 6.29492 2.71323 6.29492H5.24985C5.46766 6.29492 5.64498 6.4708 5.654 6.68842C5.85218 11.4718 7.87492 13.7447 9.67525 14.4521C9.91695 14.547 10.1607 14.3563 10.1607 14.0966V6.69492C10.1607 6.47401 10.3397 6.29492 10.5607 6.29492H12.9032C13.1241 6.29492 13.3032 6.47401 13.3032 6.69492V10.595C13.3032 10.8326 13.5098 11.0191 13.7401 10.9607C15.447 10.5275 17.1451 8.66716 17.8419 6.58269C17.8985 6.41345 18.0542 6.29492 18.2327 6.29492H20.596C20.845 6.29492 21.034 6.52064 20.9748 6.76256C20.4081 9.07639 18.821 10.8643 17.4497 11.8552C17.1861 12.0457 17.2046 12.4733 17.4845 12.6389C18.9226 13.4893 20.7559 15.1421 21.6497 17.791C21.7343 18.0417 21.5427 18.2949 21.2781 18.2949H18.6359C18.4627 18.2949 18.3102 18.1829 18.2499 18.0206C17.502 16.0075 15.8749 14.4451 13.7402 14.0666C13.5075 14.0254 13.3032 14.2114 13.3032 14.4478V17.9173C13.3032 18.1258 13.1341 18.2949 12.9255 18.2949V18.2949Z" stroke="currentColor" stroke-width="1.2" stroke-linejoin="round"/>
</svg>
