<svg  viewBox="0 0 24 24" xmlns="http://www.w3.org/2000/svg">
<path d="M10.7625 14.0967C10.7625 14.7148 10.1512 15.2829 9.45783 15.0107C7.39774 14.2013 5.31454 11.7185 5.06622 6.89453H2.93048C3.10081 10.3235 4.0801 12.9972 5.72345 14.8164C7.35081 16.6178 9.68406 17.6415 12.7049 17.6895V14.4482C12.7049 13.872 13.2143 13.3637 13.8465 13.4756C16.1804 13.8893 17.938 15.571 18.7674 17.6953H20.9774C20.1084 15.382 18.4739 13.9201 17.1805 13.1553C16.5262 12.7681 16.4889 11.8111 17.1004 11.3691L17.3436 11.1855C18.5142 10.2697 19.7775 8.77151 20.3182 6.89453H18.368C17.9867 7.97488 17.364 8.98998 16.6111 9.7998C15.8341 10.6356 14.8873 11.2888 13.8895 11.542C13.2206 11.7117 12.7049 11.16 12.7049 10.5947V6.89453H10.7625V14.0967ZM13.9051 10.2793C14.5205 10.0493 15.1571 9.60106 15.7322 8.98242C16.4008 8.26327 16.9539 7.35085 17.2742 6.39258L17.3358 6.24805C17.5031 5.92324 17.8393 5.69541 18.2342 5.69531H20.5975C21.2084 5.69531 21.7176 6.25931 21.5594 6.90527C20.9717 9.30485 19.3737 11.1543 17.9578 12.2246C19.4597 13.156 21.3033 14.8844 22.2195 17.5996C22.4424 18.2608 21.9318 18.8944 21.2801 18.8945H18.6375C18.1993 18.8944 17.8318 18.6132 17.6893 18.2295C17.036 16.4711 15.6686 15.128 13.9051 14.7139V17.917C13.9051 18.4568 13.4674 18.8944 12.9276 18.8945C9.51672 18.8945 6.7633 17.758 4.83283 15.6211C2.91257 13.4954 1.86661 10.4471 1.71954 6.72949C1.6971 6.16192 2.15318 5.6955 2.71466 5.69531H5.25177C5.76796 5.69539 6.17941 6.08234 6.24689 6.56543L6.25568 6.66406L6.27814 7.08984C6.54566 11.0882 8.16024 13.0162 9.56232 13.7393V6.69531C9.56232 6.14306 10.0101 5.69537 10.5623 5.69531H12.9051C13.4573 5.6954 13.9051 6.14308 13.9051 6.69531V10.2793Z" fill="currentColor"/>
</svg>
