<svg width="78" height="24" viewBox="0 0 78 24" fill="none" xmlns="http://www.w3.org/2000/svg">
<g clip-path="url(#clip0_4105_62084)">
<path d="M50.2108 3.42188C50.5877 3.42188 50.9043 3.55123 51.1672 3.81331C51.4379 4.08551 51.5699 4.40496 51.5699 4.77614V22.6313C51.5699 23.0115 51.4379 23.3343 51.1672 23.6065C50.9043 23.8686 50.5877 24.0002 50.2108 24.0002C49.5049 24.0002 49.0731 23.6549 48.9076 22.9654C47.893 23.6549 46.7789 24.0002 45.5496 24.0002H45.4489C43.7911 24.0002 42.3727 23.4086 41.1937 22.2241C40.0158 21.0386 39.4297 19.6168 39.4297 17.9465V15.166C39.4297 13.4945 40.017 12.0705 41.1937 10.8883C42.3727 9.7028 43.79 9.11227 45.4489 9.11227H45.5496C46.7476 9.11227 47.8527 9.44184 48.8651 10.1156V4.77614C48.8651 4.40496 48.996 4.08664 49.2544 3.81331C49.5172 3.55123 49.8327 3.42188 50.2096 3.42188H50.2108ZM48.8651 15.166C48.8651 14.2459 48.5351 13.4574 47.8841 12.8084C47.2353 12.156 46.4579 11.8332 45.5496 11.8332H45.4489C44.5327 11.8332 43.7475 12.156 43.1054 12.8084C42.4566 13.4574 42.1333 14.2459 42.1333 15.166V17.9465C42.1333 18.8666 42.4577 19.654 43.1054 20.3041C43.7475 20.952 44.5327 21.2771 45.4489 21.2771H45.5496C46.4579 21.2771 47.2353 20.952 47.8841 20.3041C48.5351 19.654 48.8651 18.8666 48.8651 17.9465V15.166Z" fill="#5C677F"/>
<path d="M76.6416 9.11343C77.0196 9.11343 77.3362 9.24616 77.5957 9.50261C77.8687 9.77819 78.0018 10.0976 78.0018 10.4643V22.6314C78.0018 23.0115 77.8687 23.3344 77.5957 23.6066C77.3351 23.8686 77.0196 24.0002 76.6416 24.0002C75.938 24.0002 75.5051 23.6549 75.3384 22.9654C74.3249 23.6549 73.2086 24.0002 71.9815 24.0002H71.8819C70.2219 24.0002 68.8024 23.4086 67.6223 22.2242C66.4478 21.0386 65.8594 19.6169 65.8594 17.9465V15.166C65.8594 13.4946 66.4478 12.0705 67.6223 10.8884C68.8024 9.70283 70.2219 9.1123 71.8819 9.1123H71.9815C73.1963 9.1123 74.3149 9.4565 75.3384 10.1438C75.5039 9.4565 75.9368 9.1123 76.6416 9.1123V9.11343ZM75.297 15.166C75.297 14.2459 74.9681 13.4574 74.3093 12.8084C73.6639 12.156 72.8909 11.8332 71.9815 11.8332H71.8819C70.9613 11.8332 70.1816 12.156 69.5385 12.8084C68.8908 13.4574 68.5664 14.2459 68.5664 15.166V17.9465C68.5664 18.8666 68.8908 19.654 69.5385 20.3041C70.1828 20.952 70.9624 21.2771 71.8819 21.2771H71.9815C72.8898 21.2771 73.6639 20.952 74.3093 20.3041C74.967 19.654 75.297 18.8666 75.297 17.9465V15.166Z" fill="#5C677F"/>
<path d="M36.9971 24.0005C37.9255 24.0005 38.675 23.2435 38.675 22.3087C38.675 21.374 37.9255 20.6182 36.9971 20.6182C36.0687 20.6182 35.3203 21.3785 35.3203 22.3087C35.3203 23.239 36.0687 24.0005 36.9971 24.0005Z" fill="#5C677F"/>
<path d="M37.9628 3.81428C38.2257 4.08649 38.3566 4.41043 38.3566 4.78612V16.5572C38.3566 16.9318 38.2257 17.2523 37.9628 17.5133C37.6944 17.7788 37.3711 17.9081 36.9963 17.9081C36.6216 17.9081 36.3084 17.7788 36.0377 17.5133C35.7771 17.2512 35.6484 16.9318 35.6484 16.5572V4.78612C35.6484 4.41043 35.7782 4.08649 36.0377 3.81428C36.3084 3.5522 36.6272 3.42285 36.9963 3.42285C37.3655 3.42285 37.6944 3.5522 37.9628 3.81428Z" fill="#5C677F"/>
<path d="M26.8047 14.7424C28.4446 14.7424 29.7768 15.324 30.7992 16.4893C31.8328 17.6815 32.1449 19.0336 31.7422 20.5363C31.4715 21.5531 30.8618 22.3889 29.9155 23.0356C28.977 23.6779 27.93 23.9985 26.7622 23.9985H26.7331C25.7185 23.9985 24.7934 23.7499 23.9523 23.2572C23.1346 22.76 22.5182 22.1122 22.1144 21.3057C21.8828 20.8614 21.9142 20.4227 22.2028 19.9941C22.5025 19.5813 22.922 19.371 23.4634 19.371C24.0865 19.371 24.5541 19.6455 24.8505 20.2C25.2252 20.9187 25.8539 21.2764 26.7331 21.2764H26.8047C27.4311 21.2764 27.9568 21.0638 28.3819 20.6364C28.7991 20.2 28.9658 19.6949 28.892 19.1247C28.8193 18.6478 28.5754 18.2518 28.1504 17.9279C27.7477 17.6287 27.2689 17.4735 26.7185 17.4633C25.2219 17.4352 24.0216 16.8762 23.1167 15.7874C22.1905 14.6839 21.9332 13.4444 22.3482 12.062C22.62 11.1723 23.1726 10.4389 24.0127 9.86864C24.8516 9.31298 25.7923 9.03516 26.836 9.03516H26.8763C28.6918 9.03516 30.0441 9.76853 30.9312 11.2218C31.212 11.6773 31.2053 12.1306 30.9167 12.5738C30.6281 13.0203 30.1974 13.2431 29.6247 13.2431C29.052 13.2431 28.6157 12.999 28.2969 12.5007C27.9759 12.0058 27.5049 11.7594 26.8763 11.7594H26.8505C26.4557 11.7594 26.1011 11.8652 25.7923 12.08C25.4735 12.3016 25.2767 12.5884 25.1995 12.9382C25.0932 13.4129 25.2107 13.8302 25.5474 14.1901C25.874 14.558 26.2946 14.7424 26.8058 14.7424H26.8047Z" fill="#5C677F"/>
<path d="M21.3165 15.2086C21.3165 15.7035 21.189 16.1601 20.9373 16.5797C20.4127 17.4807 19.6397 17.9295 18.6062 17.9295L11.8755 17.9475C11.8755 18.8676 12.1988 19.6549 12.8465 20.3051C13.4941 20.953 14.2738 21.278 15.1899 21.278H15.294C16.4115 21.278 17.3041 20.8168 17.9685 19.8968C18.3556 19.3625 18.8701 19.1578 19.4977 19.3805C19.9295 19.5256 20.2069 19.8653 20.3456 20.3051C20.4809 20.7505 20.4127 21.1577 20.1409 21.5277C18.9328 23.1767 17.3164 24.0012 15.294 24.0012H15.1899C13.5422 24.0012 12.1261 23.4129 10.9516 22.2386C9.78263 21.0756 9.18977 19.6639 9.17188 18.0037V15.2086C9.17188 13.5394 9.76026 12.1198 10.9359 10.9444C12.1127 9.76 13.5322 9.17285 15.1911 9.17285H15.2951C16.9719 9.17285 18.3981 9.77125 19.576 10.9725C20.1364 11.5462 20.5693 12.2042 20.8624 12.9387C21.0302 13.3346 21.1454 13.7486 21.2114 14.176C21.2807 14.5157 21.3176 14.8587 21.3176 15.2086H21.3165ZM11.8755 15.2232H18.5894C18.5827 14.311 18.2594 13.5247 17.6207 12.8667C16.9663 12.2155 16.1911 11.8915 15.294 11.8915H15.1899C14.2738 11.8915 13.4941 12.2155 12.8465 12.8667C12.1988 13.5157 11.8755 14.2975 11.8755 15.2074V15.2221V15.2232Z" fill="#5C677F"/>
<path d="M64.8947 15.2086C64.8947 15.7035 64.7671 16.1601 64.5154 16.5797C63.9908 17.4807 63.2179 17.9295 62.1843 17.9295L55.4537 17.9475C55.4537 18.8676 55.7769 19.6549 56.4246 20.3051C57.0723 20.953 57.8519 21.278 58.7681 21.278H58.8721C59.9896 21.278 60.8822 20.8168 61.5467 19.8968C61.9337 19.3625 62.4483 19.1578 63.0758 19.3805C63.5076 19.5256 63.785 19.8653 63.9237 20.3051C64.0591 20.7505 63.9908 21.1577 63.719 21.5277C62.5109 23.1767 60.8945 24.0012 58.8721 24.0012H58.7681C57.1204 24.0012 55.7042 23.4129 54.5297 22.2386C53.3608 21.0756 52.7679 19.6639 52.75 18.0037V15.2086C52.75 13.5394 53.3384 12.1198 54.514 10.9444C55.6908 9.76 57.1103 9.17285 58.7692 9.17285H58.8732C60.55 9.17285 61.9762 9.77125 63.1541 10.9725C63.7145 11.5462 64.1474 12.2042 64.4405 12.9387C64.6083 13.3346 64.7235 13.7486 64.7895 14.176C64.8589 14.5157 64.8958 14.8587 64.8958 15.2086H64.8947ZM55.4548 15.2232H62.1686C62.1619 14.311 61.8386 13.5247 61.1999 12.8667C60.5455 12.2155 59.7703 11.8915 58.8732 11.8915H58.7692C57.8531 11.8915 57.0734 12.2155 56.4257 12.8667C55.7781 13.5157 55.4548 14.2975 55.4548 15.2074V15.2221V15.2232Z" fill="#5C677F"/>
<path d="M6.45803 3.38004C7.38647 3.38004 8.14153 2.6253 8.14153 1.69171C8.14153 0.75812 7.38647 0 6.45803 0C5.52959 0 4.78125 0.756995 4.78125 1.69171C4.78125 2.62642 5.53183 3.38004 6.45803 3.38004Z" fill="#5C677F"/>
<path d="M12.8415 3.17054C12.733 2.7971 12.4959 2.5159 12.1458 2.3348C11.8012 2.15034 11.4411 2.11997 11.0674 2.24257C10.6949 2.36293 10.4187 2.59913 10.2374 2.94445L6.44986 10.2231L2.67682 2.94557C2.49561 2.60026 2.21708 2.36405 1.8457 2.2437C1.47097 2.12109 1.11302 2.15146 0.770725 2.33593C0.416129 2.51702 0.18346 2.79823 0.0727185 3.17166C-0.049209 3.55185 -0.0167696 3.90953 0.162207 4.2526L4.99568 13.5705V22.5431C4.99568 22.9469 5.1355 23.2922 5.41627 23.5757C5.70823 23.8625 6.05276 24.002 6.45098 24.002C6.8492 24.002 7.2038 23.8625 7.49463 23.5757C7.77876 23.2933 7.9197 22.948 7.9197 22.5431V13.5649L12.7532 4.2526C12.9333 3.90953 12.9657 3.55185 12.8427 3.17166L12.8415 3.17054Z" fill="#5C677F"/>
</g>
<defs>
<clipPath id="clip0_4105_62084">
<rect width="78" height="24" fill="white"/>
</clipPath>
</defs>
</svg>
